<?xml version="1.0" encoding="utf-8"?>
<!-- Generator: Adobe Illustrator 26.0.1, SVG Export Plug-In . SVG Version: 6.00 Build 0)  -->
<svg version="1.1" id="Layer_1" xmlns="http://www.w3.org/2000/svg" xmlns:xlink="http://www.w3.org/1999/xlink" x="0px" y="0px"
	 viewBox="0 0 500 500" style="enable-background:new 0 0 500 500;" xml:space="preserve">
<style type="text/css">
	.st0{fill:#262D75;}
	.st1{fill:#151E44;}
	.st2{fill:#218BCF;}
	.st3{fill:#649ED8;}
	.st4{fill:#0E1D69;}
	.st5{fill:#FEFEFE;}
	.st6{fill:url(#SVGID_1_);}
	.st7{fill:#FFFFFF;}
</style>
<g>
	<g id="zHwcot_00000074416052287082403540000006395447930003020419_">
		<g>
			<path class="st0" d="M260.3,248.4c-8.3-4.3-17-7.3-26.2-9.1c-15.1-3-30.3-3.8-45.5-0.3c-3.7,0.9-7.3,2.1-10.5,4.3
				c-5.8,3.9-6.7,9-2.6,14.7c0.9,1.2,1.9,2.4,3.1,3.9c-3.8,0-7.2-0.7-10.5-1.4c-9.2-1.9-17.8-5.1-25.2-11.1
				c-3.3-2.7-6.3-5.7-8.5-9.3c0.4-1,1.3-1.5,2.2-1.9c0.4,0,0.8-0.1,0.9-0.6c0,0-0.1,0.1-0.1,0.1c0.8,0.2,1.4-0.3,2.1-0.6
				c3.6-1.7,7.2-3.6,10.9-5.2c12.7-5.6,26-8.6,39.7-9.6c5.7-0.4,11.3-0.7,17.1-0.2c5.5,0.4,10.9,0.8,16.3,1.6
				c11.4,1.7,22.5,4.5,33.4,8.2c2.8,1,5.7,1.9,8.9,3c-0.7-2.5-2-4.3-3.3-6.1c-2.1-3.1-4.3-6-6.5-9c2.7,0.6,5.4,1.2,8.5,1.9
				c-1.8-3.4-4.1-6.1-6.5-8.8c-1.8-2-3.8-3.9-5.7-5.9c0.4-0.6,1.1-0.5,1.6-0.4c3.5,0.4,7.1,0.8,10.5,1.4
				c14.6,2.6,28.4,7.4,41.3,14.7c13.5,7.6,25.1,17.5,35,29.3c8.6,10.2,15.3,21.5,20.2,33.9c4.6,11.4,7.5,23.3,8.3,35.5
				c0.6,9.4,0.2,18.8-1.7,28.1c-2.9,14-8.4,26.7-16.9,38.1c-0.8,1.1-2.2,1.9-2.3,3.5c0,0,0.1-0.1,0.1-0.1c-0.2,0.2-0.4,0.4-0.6,0.7
				c-5,5-10.6,9.3-16.5,13.1c-15.5,9.9-32.6,15.4-50.7,18.3c-15.9,2.5-32,3-48,1.3c-29.6-3.1-56.7-13.1-81.2-30
				c-5.1-3.5-10.2-7.1-14.6-11.6c0.7-0.3,1.1,0.1,1.6,0.5c2,1.5,4,3,6.1,4.4c6.5,4.3,13.3,7.9,20.5,10.7c10.4,4.1,21.1,6.9,32.3,7.5
				c0.4,0.5,0.9,0.4,1.4,0.4c5.2,0.3,10.5,0.5,15.8,0.1c7.2-0.5,14.4-1.4,21.5-3.1c11.1-2.6,21.6-6.7,31.7-12
				c8.9-4.7,17.1-10.4,24.5-17.2c7.9-7.2,14.8-15.4,20.1-24.8c5.5-9.7,8.8-20.1,9.6-31.2c0.5-6.3-0.4-12.6-2-18.7
				c-1.1-4.2-2.7-8.3-4.7-12.5c-0.3,0.9-0.6,1.3-0.7,1.8c-1,5.5-3.5,10.2-6.8,14.6c-0.7,1-2.1,1.6-2.2,3c-1.2,1.2-2.5,2.3-3.7,3.5
				c-4,3.8-8.3,7.1-13.3,9.5l0,0c-0.1-1.1,0.2-2,0.5-3c1.1-4.1,2.3-8.3,2.3-12.6c1-3.7,0.8-7.4,0.5-11.1c-0.5-6.2-2.1-12.1-4.7-17.7
				c-4.6-9.8-12-17.2-21-23c-1.6-1.1-3.1-2.5-5.3-2.6c0,0,0,0,0,0C260.7,248.7,260.5,248.5,260.3,248.4z"/>
			<path class="st1" d="M288.6,318.9c5-2.4,9.3-5.7,13.3-9.5c1.2-1.2,2.5-2.3,3.7-3.5c1.8,6.2,2.9,12.4,2.4,19
				c-0.6,7.8-2.7,15-6.1,21.9c-6.2,12.6-15.5,22.7-26.3,31.5c-11,8.9-23.2,15.7-36.5,20.5c-13.4,4.9-27.2,7.4-41.6,6.8
				c-11.2-0.6-21.9-3.4-32.3-7.5c-7.2-2.8-14-6.5-20.5-10.7c-2.1-1.4-4.1-2.9-6.1-4.4c-0.5-0.4-0.9-0.8-1.6-0.5c0,0,0,0,0,0
				c-0.1-1.1-0.6-1.6-1.8-1.3c0,0-0.1,0-0.1,0c0.1-0.4,0-0.5-0.4-0.4c0,0,0,0,0,0c0.1-0.3-0.1-0.5-0.4-0.4c0,0,0,0,0,0
				c0.1-0.6-0.2-0.7-0.7-0.7c-12.9-11.2-23.5-24.4-32.3-39c-12-20-19.6-41.6-23-64.6c-1.2-8-1.7-16.1-1.7-24.2
				c1,0.5,1.1,1.5,1.5,2.4c7.3,17,16.5,32.8,28.8,46.7c17.2,19.3,38,32.6,63.7,37.1c26.6,4.7,51.6,0.3,74.6-14.2
				c11.1-7,20.2-16,25.4-28.3c6.4-14.9,4-28.7-5.6-41.5c-0.8-1-1.6-2-2.3-3c0.8-0.8,1.2,0.1,1.6,0.5c2.4,2.5,4.9,4.7,7.1,7.4
				c7.4,9.5,10.8,20.4,10.9,32.2c0,5.1-0.8,10.3-2.8,15.2c-0.8,2-1.6,4-2.5,6.4c5.7-2.3,9.9-6.1,14.3-9.5c0.1,4.3-1.1,8.5-2.3,12.6
				C288.8,316.9,288.5,317.9,288.6,318.9c0,0.1-0.1,0.1-0.1,0.2C288.6,319.1,288.6,319,288.6,318.9z"/>
			<path class="st2" d="M150.3,185.1c0.1,2,0.3,4,2.3,5.3c3.4-2.8,6.9-5.6,10.2-8.5c5.7-4.8,11.4-9.7,17.1-14.5
				c2.3-1.9,4.5-3.8,6.8-5.8c0.7-0.6,1.4-1.1,2.3-1.2c2.2-9.4,8.4-15,17-18.5c2.1-0.8,4.4-1.3,6.3-2.7c0.2,0,0.5,0,0.7-0.1
				c10.9-4.3,21.5-9.2,31.2-16c6.9-4.9,13.3-10.3,16.8-18.3c0.1-0.1,0.4-0.2,0.8-0.3c4.2,6.3,6.1,13.3,7,20.8
				c15.9-10.2,29.8-22.2,41.7-36.9C292,81.6,273.3,78.1,254,77.7c-22.3-0.4-44,3.3-64.8,11.2c-27.7,10.6-51.1,27.1-70.5,49.5
				c-12.1,14-21.6,29.6-28.7,46.6c-6.5,15.8-10.7,32.3-12.3,49.4c-0.5,5.8-0.7,11.6-1,17.3c1,0.5,1.1,1.5,1.5,2.4
				c7.3,17,16.5,32.8,28.8,46.7c17.2,19.3,38,32.6,63.7,37.1c26.6,4.7,51.6,0.3,74.6-14.2c11.1-7,20.2-16,25.4-28.3
				c6.4-14.9,4-28.7-5.6-41.5c-0.8-1-1.6-2-2.3-3c-0.8-0.6-1.6-1.2-1.8-2.2c0,0,0,0,0,0c-0.2-0.1-0.4-0.3-0.6-0.4
				c-8.3-4.3-17-7.3-26.2-9.1c-15.1-3-30.3-3.8-45.5-0.3c-3.7,0.9-7.3,2.1-10.5,4.3c-5.8,3.9-6.7,9-2.6,14.7
				c0.9,1.2,1.9,2.4,3.1,3.9c-3.8,0-7.2-0.7-10.5-1.4c-9.2-1.9-17.8-5.1-25.2-11.1c-3.3-2.7-6.3-5.7-8.5-9.3c-3.2,1.8-5.6,4.7-9,6.8
				c-2.5-9.5-3.6-18.8-2.9-28.3c0.1-0.6,0.3-1.1,0.4-1.7c1.1-7.6,3.9-14.4,8.1-20.8c4.8-7.3,11-13.2,17.9-18.4
				c0.8-0.6,1.5-1.8,2.8-1.3c0.4,1-0.2,1.8-0.5,2.6C150.6,180.8,150.1,182.9,150.3,185.1z"/>
			<path class="st2" d="M409.2,207.9c0.5-0.8-0.3-1.2-0.7-1.7c-15-16.9-32.6-30.6-52.6-41c-18.4-9.6-37.8-15.9-58.4-18.5
				c-1.9-0.2-3.9,0-5.7-0.7c0.3-0.3,0.5-0.5,0.8-0.8c7.5-6.1,14.2-13.1,19.7-21c6.2-8.9,10.6-18.7,13.9-29c8.9,4,17.1,9.1,25,14.7
				c10.3,7.2,19.5,15.6,27.9,24.8c17.6,19.4,30.2,41.7,37.8,66.8c4.4,14.6,6.7,29.6,7.1,44.9c0.4,16.2-1.3,32-5.2,47.7
				c-0.1,0.4-0.2,0.7-0.4,1.1c-0.2,0-0.4,0-0.6,0c-0.6-6.9-1.3-13.9-2.7-20.7c-4.3-19.7-12.6-37.5-25.2-53.3
				c-7.1-8.8-15-16.7-24.2-23.4c-0.1-0.1-0.2-0.2-0.2-0.4c1.2,0.1,2.3,0.2,3.5,0.3c0.3,0,0.6,0.1,0.9,0.1c0.7,0.1,1.4,0.1,2.1,0.2
				c0.3,0.1,0.7,0.2,1,0.3c1.6,0.2,3.2,0.4,4.8,0.7c0.2,0.1,0.4,0.2,0.6,0.2c0.5,0.1,1.1,0.1,1.6,0.2c0.2,0.1,0.4,0.2,0.6,0.2
				c0.4,0.1,0.8,0.1,1.2,0.2c0.3,0.3,0.6,0.4,1,0.3c0.4,0.1,0.8,0.1,1.2,0.2c0.2,0.1,0.4,0.2,0.6,0.2c7.1,1.7,14,3.9,20.7,7
				c1.6,0.7,3,2,4.8,2l0,0c0.1,0.8,0.6,1,1.4,0.9c-0.1,0.4,0.2,0.5,0.4,0.6c0.2,0.3,0.4,0.4,0.7,0c-0.2-0.1-0.4-0.1-0.6-0.2
				c-0.2-0.1-0.4-0.3-0.6-0.4c-0.1-0.2-0.3-0.4-0.4-0.6c-0.1-0.8-0.7-1.2-1.3-1.7c-0.2-0.2-0.3-0.5-0.6-0.4L409.2,207.9z"/>
			<path class="st1" d="M348.6,391c0.1-1.6,1.4-2.4,2.3-3.5c8.5-11.5,14-24.2,16.9-38.1c1.9-9.3,2.2-18.7,1.7-28.1
				c-0.7-12.3-3.7-24.1-8.3-35.5c-5-12.4-11.7-23.7-20.2-33.9c-9.9-11.8-21.5-21.7-35-29.3c-12.9-7.3-26.7-12.1-41.3-14.7
				c-3.5-0.6-7-1-10.5-1.4c-0.6-0.1-1.2-0.2-1.6,0.4c-2-0.8-3.5-2.5-5.2-3.7c-4-2.8-8.3-5.3-13.1-7.7c10.4-0.7,20.3-0.4,30.2,0.8
				c16.5,2.1,32.2,6.8,46.7,15c34.6,19.6,56.2,48.9,63.9,87.9c4.8,24.4,1.9,47.9-9.9,70C360.6,377.3,355.3,384.7,348.6,391z"/>
			<path class="st1" d="M326.2,95.2c-3.3,10.3-7.7,20.1-13.9,29c-5.6,8-12.2,14.9-19.7,21c-0.3,0.2-0.5,0.5-0.8,0.8
				c-4.2,2.5-8,5.6-12.2,8.2c-8,4.9-16.4,8.9-25.1,12.4c-0.2,0.1-0.4,0.1-1.4,0.2c7.2-6.6,11.3-14.4,13.8-23
				c20.3-7.7,35.9-21.3,48.6-38.4c0.3-0.4,0.6-0.7,0.5-1.2c0.1-0.1,0.2-0.2,0.5-0.4c-0.4,0.1-0.6,0.1-0.8,0.1
				c-3.8,1.1-7.6,2.2-11.9,3.5c13.5-15.3,22.6-32.5,27.8-51.8c-0.1,6.5-0.5,13-1.3,19.5c-0.8,6.3-2.2,12.6-3.8,18.7
				C326.4,94.2,326.3,94.7,326.2,95.2z"/>
			<path class="st1" d="M256.1,219.5c2.2,3,4.4,5.9,6.5,9c1.2,1.8,2.6,3.6,3.3,6.1c-3.2-1.1-6-2-8.9-3c-10.9-3.7-22-6.5-33.4-8.2
				c-5.4-0.8-10.9-1.2-16.3-1.6c-5.7-0.4-11.4-0.2-17.1,0.2c-13.7,1-27.1,4.1-39.7,9.6c-3.7,1.6-7.2,3.4-10.9,5.2
				c-0.7,0.3-1.3,0.8-2.1,0.6c8.2-6.2,17.3-10.8,26.9-14.5c18.1-7,36.8-9.4,56.1-8.6c11.3,0.5,22.4,2,33.5,4.5
				C254.7,219.1,255.4,219.3,256.1,219.5z"/>
			<path class="st1" d="M369.1,197.7c-1.2-0.1-2.3-0.2-3.5-0.3c-1.4-0.6-2.6-1.5-3.7-2.5c-0.1-0.1-0.2-0.2-0.4-0.2
				c-0.3-0.2-0.7-0.4-1-0.6c0,0-0.1-0.2-0.1-0.2l-0.2,0c-1.5-1-3.1-2-4.6-3c-0.1-0.1-0.2-0.2-0.4-0.2c-9.3-5.4-19.1-9.7-29.5-12.8
				c-2.8-0.8-5.7-1.5-8.6-2.2c0,0-0.1-0.2-0.1-0.2l-0.2,0c-0.6-0.1-1.3-0.2-1.9-0.4c0,0-0.1-0.2-0.1-0.2l-0.2,0.1
				c-0.7-0.1-1.3-0.2-2-0.3c0,0-0.1-0.2-0.1-0.2l-0.2,0.1c-0.2-0.1-0.4-0.2-0.6-0.2c0-0.2,0-0.5,0-0.7c2.4,0.2,4.8,0.4,7.2,0.6
				c0,0,0.1,0.1,0.1,0.1l0.2-0.1c1.1,0.1,2.2,0.3,3.3,0.4c0,0,0.1,0.1,0.1,0.1l0.2-0.1c0.8,0.1,1.6,0.2,2.4,0.3c0,0,0.1,0.2,0.1,0.2
				l0.2-0.1c0.8,0.1,1.6,0.3,2.4,0.4c0,0,0.1,0.2,0.1,0.2l0.2-0.1c1.4,0.3,2.8,0.5,4.2,0.8c0,0,0.1,0.2,0.1,0.2l0.2-0.1
				c12.6,2.8,24.6,7,36.4,13.2c-0.6-2.3-2-3.8-2.8-5.6c0-0.2-0.1-0.3-0.3-0.3c-0.4-0.7-1-1.2-1.1-2c0-0.3,0.1-0.7,0.1-1
				c0.4,0,0.7,0,1-0.1c0.2,0.1,0.4,0.2,0.7,0.2c0,0.1,0.1,0.2,0.2,0.2c0.2,0.1,0.5,0.2,0.7,0.3c0,0.1,0.1,0.2,0.2,0.2
				c0.2,0.1,0.5,0.2,0.7,0.3c0,0.1,0.1,0.2,0.2,0.2c0.2,0.1,0.5,0.2,0.7,0.3c0,0.1,0.1,0.1,0.1,0.1c6.2,2.9,12.1,6.3,17.7,10.2
				c0,0,0.1,0.1,0.1,0.1c2.8,1.5,5.5,3.3,8,5.3c0,0,0,0,0,0c3.6,2.3,7,4.8,10.2,7.6c0,0,0,0,0,0c1.3,0.3,1.8,2,3.4,2
				c0,0,0-0.1,0-0.1c-0.5,0.7,0.2,0.7,0.6,0.9c0.1,0.3,0.3,0.5,0.4,0.8c-1.9-0.1-3.2-1.3-4.8-2c-6.7-3-13.6-5.3-20.7-7
				c-0.2-0.1-0.4-0.2-0.6-0.2c-0.4-0.1-0.8-0.1-1.2-0.2c-0.3-0.3-0.6-0.4-1-0.3c-0.4-0.1-0.8-0.1-1.2-0.2c-0.2-0.1-0.4-0.2-0.6-0.2
				c-0.5-0.1-1.1-0.1-1.6-0.2c-0.2-0.1-0.4-0.2-0.6-0.2c-1.6-0.2-3.2-0.4-4.8-0.7c-0.3-0.4-0.6-0.4-1-0.3c-0.7-0.1-1.4-0.1-2.1-0.2
				C369.7,197.4,369.4,197.4,369.1,197.7z"/>
			<path class="st2" d="M152.6,190.3c3.4-2.8,6.9-5.6,10.2-8.5c5.7-4.8,11.4-9.7,17.1-14.5c2.3-1.9,4.5-3.8,6.8-5.8
				c0.7-0.6,1.4-1.1,2.3-1.2c-0.3,4.9,0.5,9.3,4.4,12.7c2.6,2.2,5.7,3.4,9.3,4c-5.6,1.4-10.5,1.1-15.1-2.7c-1.7,1.7-3.3,3.3-5,4.9
				c-5.1,4.9-10.7,9-17.3,11.7c-1.9,0.8-4,1.3-6,1.5C156.8,192.7,154.4,192.4,152.6,190.3z"/>
			<path class="st1" d="M234.6,148.8c2.6-1.3,5.3-2.6,7.9-3.9c2.3-1.2,4.4-2.7,6.4-4.3c0,0,0.2,0,0.2,0l0.2,0c0,0.3-0.1,0.6-0.1,0.9
				c-0.1,0.1-0.1,0.3-0.2,0.4c-4,15.3-14,24.7-28.9,27.2c-4.1,0.7-8.3,1.4-12.5,0.6c5.1-0.9,9.9-2.4,14.4-5
				C228.2,161.2,232.7,156.1,234.6,148.8z"/>
			<path class="st2" d="M234.6,148.8c-1.9,7.2-6.4,12.3-12.8,16c-4.4,2.6-9.3,4.1-14.4,5c-0.9-5.5,2-9,6.1-11.9
				c5.1-3.6,11.1-5.4,16.9-7.7C231.8,149.7,233.2,149.3,234.6,148.8z"/>
			<path class="st2" d="M153.1,208.6c-0.2,0.7-0.3,1.4-0.9,2c-0.5-2.5-1.8-3.5-4.3-3.2c-2.8,0.4-5.1,1.7-7.2,3.6
				c-0.6,0.6-1.1,1.4-2,1.7c-0.2-0.5,0.1-1,0.2-1.4c1.2-2.3,2.7-4.4,4.7-6.1c1.8-1.5,3.7-3,6.3-2.9c1.9,0.1,2.9,1,3,2.8
				C153,206.2,153,207.4,153.1,208.6z"/>
			<path class="st1" d="M153.1,208.6c-0.1-1.2-0.1-2.4-0.2-3.5c-0.2-1.8-1.2-2.8-3-2.8c-2.6-0.1-4.5,1.3-6.3,2.9
				c-2,1.7-3.5,3.8-4.7,6.1c-0.2,0-0.5,0-0.7,0.1c0-0.4,0-0.7,0.3-1c0.1,0,0.1-0.1,0.1-0.2c1.5-4.5,4.1-8.2,8.2-10.5
				c1.8-1,3.7-1.7,5.6-0.4c2,1.3,1.9,3.4,1.7,5.4C153.9,205.9,153.4,207.3,153.1,208.6z"/>
			<path class="st0" d="M311.9,173.9c0,0.2,0,0.5,0,0.7c-2-0.1-4-0.3-6.1-1.1C307.9,173.6,309.9,173.8,311.9,173.9z"/>
			<path class="st0" d="M366.2,180.9c-0.3,0-0.6,0-1,0.1c0,0.4-0.1,0.7-0.1,1c-0.7-0.5-0.9-1.4-1.5-2.3
				C364.7,179.9,365.5,180.3,366.2,180.9z"/>
			<path class="st3" d="M417.9,295.2c0.2,0,0.4,0,0.6,0c-0.2,0.8-0.3,1.7-0.5,2.5c-0.1,0-0.2,0-0.3,0
				C417.8,296.9,417.9,296.1,417.9,295.2z"/>
			<path class="st0" d="M138.2,211.3c0.2,0,0.5,0,0.7-0.1c-0.1,0.5-0.5,0.9-0.2,1.4c0,0,0,0,0,0c-0.5,0.1-0.6,0.4-0.6,0.8l0,0.1
				c-0.2-0.1-0.3-0.2-0.5-0.3C137.7,212.5,137.7,211.9,138.2,211.3z"/>
			<path class="st0" d="M135.2,381.3c1.1-0.3,1.7,0.2,1.8,1.3C136.2,382.4,135.7,381.9,135.2,381.3z"/>
			<path class="st3" d="M137.6,213.2c0.2,0.1,0.3,0.2,0.5,0.3c-0.1,0.5-0.2,1-0.8,1.2C137.1,214.1,137.1,213.6,137.6,213.2z"/>
			<path class="st1" d="M348,391.5c0.2-0.2,0.4-0.4,0.6-0.7C348.6,391.2,348.4,391.4,348,391.5z"/>
			<path class="st0" d="M133.6,379.7c0.4,0,0.8,0.1,0.7,0.7C134,380.2,133.7,380,133.6,379.7z"/>
			<path class="st1" d="M137.6,237.4c-0.1,0.5-0.5,0.6-0.9,0.6C137,237.9,137.3,237.6,137.6,237.4z"/>
			<path class="st2" d="M138.1,213.4c0-0.4,0.1-0.7,0.6-0.8C138.7,213.1,138.4,213.3,138.1,213.4z"/>
			<path class="st0" d="M368.8,182.3c-0.1,0-0.2-0.1-0.2-0.2c0,0,0.2,0,0.2,0L368.8,182.3z"/>
			<polygon class="st0" points="395.5,198.3 395.5,198.3 395.5,198.2 			"/>
			<path class="st0" d="M367,181.4c-0.1,0-0.2-0.1-0.2-0.2c0,0,0.2,0,0.2,0L367,181.4z"/>
			<path class="st0" d="M361.5,194.7c0.1,0.1,0.2,0.2,0.4,0.2C361.8,194.9,361.6,194.8,361.5,194.7z"/>
			<path class="st3" d="M332.8,176.7l-0.2,0.1c0,0-0.1-0.2-0.1-0.2C332.6,176.5,332.7,176.5,332.8,176.7z"/>
			<polygon class="st0" points="405.8,205.9 405.7,205.9 405.8,205.8 			"/>
			<path class="st3" d="M328.3,175.8l-0.2,0.1c0,0-0.1-0.2-0.1-0.2C328.2,175.6,328.3,175.6,328.3,175.8z"/>
			<path class="st0" d="M367.9,181.8c-0.1,0-0.2-0.1-0.2-0.2c0,0,0.2,0,0.2,0L367.9,181.8z"/>
			<path class="st3" d="M316.9,175.7l0.2,0c0,0,0.1,0.2,0.1,0.2C317,176,316.9,175.9,316.9,175.7z"/>
			<path class="st0" d="M369.7,182.7c-0.1,0-0.1,0-0.1-0.1c0,0,0.2,0,0.2,0L369.7,182.7z"/>
			<path class="st0" d="M138.6,210.1c0,0.1,0,0.2-0.1,0.2c0,0,0-0.2,0-0.2L138.6,210.1z"/>
			<path class="st3" d="M360.2,194l0.2,0c0,0,0.1,0.2,0.1,0.2C360.4,194.1,360.3,194,360.2,194z"/>
			<path class="st3" d="M314.7,175.2l0.2-0.1c0,0,0.1,0.2,0.1,0.2C314.8,175.5,314.7,175.4,314.7,175.2z"/>
			<polygon class="st0" points="387.5,193 387.4,192.9 387.5,192.8 			"/>
			<path class="st3" d="M322.9,175l-0.2,0.1c0,0-0.1-0.1-0.1-0.1C322.8,174.7,322.9,174.8,322.9,175z"/>
			<path class="st3" d="M312.4,174.8l0.2-0.1c0,0,0.1,0.2,0.1,0.2C312.5,175.1,312.4,175,312.4,174.8z"/>
			<path class="st3" d="M319.4,174.5l-0.2,0.1c0,0-0.1-0.1-0.1-0.1C319.2,174.3,319.3,174.3,319.4,174.5z"/>
			<path class="st0" d="M355.2,190.7c0.1,0.1,0.2,0.2,0.4,0.2C355.5,190.9,355.4,190.8,355.2,190.7z"/>
			<path class="st1" d="M253.2,166.7c0,0,0.1,0.1,0.1,0.1c-0.1,0-0.1,0.1-0.2,0.1c-0.1,0-0.1-0.1-0.1-0.1
				C253.1,166.8,253.1,166.7,253.2,166.7z"/>
			<path class="st0" d="M248.9,142.1c0.1-0.1,0.1-0.3,0.2-0.4C249,141.8,249,141.9,248.9,142.1z"/>
			<path class="st0" d="M249.2,140.7l-0.2,0c0,0-0.2,0-0.2,0c0.1-0.2,0.2-0.4,0.3-0.5l0,0C249.2,140.4,249.2,140.5,249.2,140.7z"/>
			<polygon class="st0" points="249.2,140.2 249.3,140.2 249.2,140.2 			"/>
			<path class="st0" d="M366.1,184.1c0.2,0,0.2,0.1,0.3,0.3C366.2,184.4,366.1,184.3,366.1,184.1z"/>
			<path class="st0" d="M134.3,380.4c0.3-0.1,0.5,0,0.4,0.4C134.6,380.6,134.5,380.5,134.3,380.4z"/>
			<path class="st0" d="M134.8,380.8c0.3-0.1,0.5,0,0.4,0.4C135.1,381.1,134.9,381,134.8,380.8z"/>
			<path class="st3" d="M325.6,175.4l-0.2,0.1c0,0-0.1-0.2-0.1-0.2C325.5,175.1,325.6,175.1,325.6,175.4z"/>
			<path class="st4" d="M291.4,303.3c-4.4,3.4-8.6,7.2-14.3,9.5c0.9-2.3,1.7-4.4,2.5-6.4c1.9-4.9,2.8-10.1,2.8-15.2
				c-0.1-11.9-3.5-22.7-10.9-32.2c-2.1-2.7-4.7-5-7.1-7.4c-0.4-0.4-0.7-1.3-1.6-0.5c-0.8-0.6-1.6-1.2-1.8-2.2
				c2.1,0.1,3.6,1.6,5.3,2.6c9,5.8,16.4,13.2,21,23c2.6,5.6,4.2,11.5,4.7,17.7C292.2,295.9,292.4,299.6,291.4,303.3z"/>
			<path class="st4" d="M260.3,248.4c0.2,0.1,0.4,0.3,0.6,0.4C260.7,248.7,260.5,248.5,260.3,248.4z"/>
			<path class="st4" d="M197.5,405.6c14.3,0.6,28.2-1.9,41.6-6.8c13.3-4.8,25.5-11.6,36.5-20.5c10.8-8.8,20.1-18.9,26.3-31.5
				c3.4-6.9,5.5-14.1,6.1-21.9c0.5-6.6-0.6-12.8-2.4-19c0.1-1.4,1.5-2,2.2-3c3.3-4.4,5.9-9.1,6.8-14.6c0.1-0.5,0.3-0.9,0.7-1.8
				c2.1,4.3,3.7,8.3,4.7,12.5c1.6,6.1,2.4,12.4,2,18.7c-0.8,11.1-4.1,21.4-9.6,31.2c-5.3,9.4-12.2,17.6-20.1,24.8
				c-7.4,6.8-15.6,12.4-24.5,17.2c-10.1,5.4-20.6,9.4-31.7,12c-7.1,1.7-14.2,2.6-21.5,3.1c-5.3,0.4-10.5,0.2-15.8-0.1
				C198.4,406,197.9,406.1,197.5,405.6z"/>
			<path class="st0" d="M288.6,318.9c0,0.1-0.1,0.1-0.1,0.2C288.6,319.1,288.6,319,288.6,318.9C288.6,318.9,288.6,318.9,288.6,318.9
				z"/>
			<path class="st3" d="M410.2,209.5c-0.1-0.3-0.3-0.5-0.4-0.8c0-0.2,0.1-0.4,0.1-0.6c0.6,0.4,1.1,0.9,1.3,1.7
				C410.8,209.7,410.5,209.6,410.2,209.5C410.1,209.5,410.2,209.5,410.2,209.5z"/>
			<path class="st1" d="M410.1,209.5c0.3,0.1,0.6,0.2,0.9,0.3c0.1,0.2,0.3,0.4,0.4,0.6l0,0C410.8,210.5,410.3,210.3,410.1,209.5z"/>
			<path class="st0" d="M369.1,197.7c0.3-0.3,0.6-0.3,0.9,0.1C369.6,197.8,369.3,197.7,369.1,197.7z"/>
			<path class="st0" d="M412,210.8c0.2,0.1,0.4,0.1,0.6,0.2c-0.3,0.3-0.5,0.3-0.7,0C411.9,210.9,411.9,210.8,412,210.8z"/>
			<path class="st5" d="M409.8,208.1c0,0.2-0.1,0.4-0.1,0.6c-0.4-0.2-1-0.2-0.6-0.9C409.6,207.6,409.7,207.9,409.8,208.1z"/>
			<path class="st0" d="M381.9,199.8c0.4-0.1,0.7-0.1,1,0.3C382.5,200.1,382.2,200.1,381.9,199.8z"/>
			<path class="st0" d="M372.1,198c0.4-0.1,0.7-0.1,1,0.3C372.7,198.2,372.4,198.1,372.1,198z"/>
			<path class="st0" d="M377.8,198.9c0.2,0.1,0.4,0.2,0.6,0.2C378.2,199.1,378,199,377.8,198.9z"/>
			<path class="st0" d="M380.1,199.4c0.2,0.1,0.4,0.2,0.6,0.2C380.5,199.5,380.3,199.4,380.1,199.4z"/>
			<path class="st0" d="M384.1,200.3c0.2,0.1,0.4,0.2,0.6,0.2C384.5,200.4,384.3,200.3,384.1,200.3z"/>
			<path class="st1" d="M411.5,210.4c0.2,0.1,0.4,0.3,0.6,0.4c-0.1,0-0.1,0.1-0.1,0.2C411.7,210.8,411.4,210.7,411.5,210.4
				C411.5,210.4,411.5,210.4,411.5,210.4z"/>
			<path class="st5" d="M315.7,103.8c0.2,0,0.3,0,0.8-0.1c-0.3,0.3-0.4,0.4-0.5,0.4C315.8,104,315.7,103.9,315.7,103.8z"/>
		</g>
	</g>
	<linearGradient id="SVGID_1_" gradientUnits="userSpaceOnUse" x1="149.8711" y1="133.7865" x2="184.7575" y2="175.8002">
		<stop  offset="0" style="stop-color:#FFFFFF;stop-opacity:0.3"/>
		<stop  offset="1" style="stop-color:#FFFFFF;stop-opacity:0"/>
	</linearGradient>
	<path class="st6" d="M251.1,94c-86.9,0-157.4,70.5-157.4,157.4c0,3.8,0.1,7.6,0.4,11.3L282.3,97.1C272.2,95.1,261.7,94,251.1,94z"
		/>
	<g>
		<path class="st7" d="M348.6,391C348.6,391,348.6,390.9,348.6,391C348.6,390.9,348.6,390.9,348.6,391L348.6,391z"/>
		<path class="st7" d="M137.6,237.4C137.6,237.4,137.5,237.5,137.6,237.4C137.5,237.5,137.5,237.5,137.6,237.4L137.6,237.4z"/>
		<path class="st7" d="M463.7,250C463.7,132,368,36.3,250,36.3S36.3,132,36.3,250S132,463.7,250,463.7S463.7,368,463.7,250z
			 M364.9,369.2c-4.3,8.1-9.6,15.5-16.3,21.7c-0.1,0.3-0.3,0.5-0.6,0.6c-5,5-10.6,9.3-16.5,13.1c-15.5,9.9-32.6,15.4-50.7,18.3
			c-15.9,2.5-32,3-48,1.3c-29.6-3.1-56.7-13.1-81.2-30c-5.1-3.5-10.2-7.1-14.6-11.6l0,0c-0.7-0.2-1.3-0.7-1.8-1.3l-0.1,0
			c-0.1-0.1-0.3-0.3-0.4-0.4l0,0c-0.1-0.1-0.3-0.3-0.4-0.4c0,0,0,0,0,0c-0.3-0.1-0.6-0.3-0.7-0.7c-12.9-11.2-23.5-24.4-32.3-39
			c-12-20-19.6-41.6-23-64.6c-1.2-8-1.7-16.1-1.7-24.2c0.3-5.8,0.5-11.6,1-17.4c1.6-17.1,5.8-33.5,12.3-49.4
			c7.1-17.1,16.6-32.6,28.7-46.6c19.3-22.5,42.8-39,70.5-49.5c20.9-8,42.5-11.7,64.8-11.2c19.3,0.4,38,3.9,56.4,10.6
			c-11.9,14.7-25.8,26.7-41.7,36.9c-0.8-7.5-2.7-14.5-7-20.8c-0.4,0.2-0.7,0.2-0.8,0.3c-3.5,8-9.9,13.5-16.8,18.3
			c-9.6,6.8-20.3,11.7-31.2,16c-0.2,0.1-0.4,0.1-0.7,0.1c-1.9,1.3-4.2,1.8-6.3,2.7c-8.7,3.5-14.8,9.1-17,18.5
			c-0.3,4.9,0.5,9.3,4.4,12.7c2.6,2.2,5.7,3.4,9.3,4c-5.6,1.4-10.5,1.1-15.1-2.7c-1.7,1.7-3.3,3.3-5,4.9c-5.1,4.9-10.7,9-17.3,11.7
			c-1.9,0.8-4,1.3-6,1.5c-2.5,0.2-4.9-0.1-6.7-2.1c-2-1.2-2.1-3.3-2.3-5.3c-0.2-2.2,0.3-4.3,1-6.4c0.3-0.8,0.8-1.6,0.5-2.6
			c-1.4-0.5-2,0.7-2.8,1.3c-6.9,5.2-13.1,11.1-17.9,18.4c-4.2,6.3-7,13.2-8.1,20.8c-0.1,0.6-0.3,1.2-0.4,1.7
			c-0.7,9.5,0.4,18.9,2.9,28.3c3.4-2.1,5.8-5,9-6.8c0.4-1,1.3-1.5,2.2-1.9c0.3-0.2,0.6-0.4,0.9-0.6c8.2-6.1,17.3-10.8,26.8-14.5
			c18.1-7,36.8-9.4,56.1-8.6c11.3,0.5,22.4,2,33.5,4.5c0.7,0.2,1.4,0.4,2.1,0.6c2.7,0.6,5.4,1.2,8.5,1.9c-1.8-3.4-4.1-6.1-6.5-8.8
			c-1.8-2-3.8-3.9-5.7-5.9c-2-0.8-3.5-2.5-5.2-3.7c-4-2.8-8.3-5.3-13.1-7.7c10.4-0.7,20.3-0.4,30.2,0.8c16.5,2.1,32.2,6.8,46.7,15
			c34.6,19.6,56.2,48.9,63.9,87.9C379.6,323.6,376.7,347.1,364.9,369.2z M249.2,140.7c0,0.3-0.1,0.6-0.1,0.9
			c-0.1,0.1-0.1,0.3-0.2,0.4c-4,15.3-14,24.7-28.9,27.2c-4.1,0.7-8.3,1.4-12.5,0.6c-0.9-5.5,2-9,6.1-11.9c5.1-3.6,11.1-5.4,16.9-7.7
			c1.4-0.5,2.8-1,4.2-1.4c2.6-1.3,5.3-2.6,7.9-3.9c2.3-1.2,4.4-2.7,6.4-4.3c0.1-0.2,0.2-0.3,0.3-0.5
			C249.2,140.4,249.2,140.5,249.2,140.7z M249.3,140.2L249.3,140.2C249.2,140.2,249.2,140.2,249.3,140.2L249.3,140.2z M138.1,213.5
			c-0.1,0.5-0.2,1-0.8,1.2c-0.3-0.6-0.3-1.1,0.2-1.5c0.1-0.6,0.1-1.3,0.6-1.9c0-0.4,0-0.7,0.3-1l0-0.2l0.1-0.1
			c1.5-4.5,4.1-8.2,8.2-10.5c1.8-1,3.7-1.7,5.6-0.4c2,1.3,1.9,3.4,1.7,5.4c-0.2,1.4-0.7,2.7-1.1,4.1c-0.2,0.7-0.3,1.4-0.9,2
			c-0.5-2.5-1.8-3.5-4.3-3.2c-2.8,0.4-5.1,1.7-7.2,3.6c-0.6,0.6-1.1,1.4-2,1.7l0,0C138.7,213.1,138.4,213.3,138.1,213.5L138.1,213.5
			z M365.8,197.8c-0.1-0.1-0.2-0.2-0.2-0.4c-1.4-0.6-2.6-1.5-3.7-2.5c-0.1-0.1-0.2-0.2-0.4-0.2c-0.3-0.2-0.7-0.4-1-0.6
			c-0.1-0.1-0.2-0.1-0.3-0.2c-1.5-1-3.1-2-4.6-3c-0.1-0.1-0.2-0.2-0.4-0.2c-9.3-5.4-19.1-9.7-29.5-12.8c-2.8-0.8-5.7-1.5-8.6-2.2
			c-0.2,0.1-0.3,0.1-0.3-0.1c-0.6-0.1-1.3-0.2-1.9-0.4c-0.2,0.2-0.3,0.1-0.3-0.1c-0.7-0.1-1.3-0.2-2-0.3c-0.2,0.2-0.3,0.1-0.3-0.1
			c-0.2-0.1-0.4-0.2-0.6-0.2c-2-0.1-4-0.3-6.1-1.1c2.1,0.1,4.1,0.3,6.1,0.4c2.4,0.2,4.8,0.4,7.2,0.6c0.1-0.2,0.2-0.1,0.3,0.1
			c1.1,0.1,2.2,0.3,3.3,0.4c0.1-0.2,0.2-0.1,0.3,0.1c0.8,0.1,1.6,0.2,2.4,0.3c0.1-0.2,0.2-0.1,0.3,0.1c0.8,0.1,1.6,0.3,2.4,0.4
			c0.2-0.2,0.3-0.1,0.3,0.1c1.4,0.3,2.8,0.5,4.2,0.8c0.2-0.1,0.3-0.1,0.3,0.1c12.6,2.8,24.6,7,36.4,13.2c-0.6-2.3-2-3.8-2.8-5.6
			c-0.2,0-0.3,0-0.3-0.3c-0.4-0.7-1-1.2-1.1-2c-0.7-0.5-0.9-1.4-1.5-2.3c1.2,0.2,2,0.6,2.6,1.2c0.2,0.1,0.4,0.2,0.7,0.2l0.2,0l0,0.2
			c0.2,0.1,0.5,0.2,0.7,0.3l0.2,0l0,0.2c0.2,0.1,0.5,0.2,0.7,0.3l0.2,0l0,0.2c0.2,0.1,0.5,0.2,0.7,0.3l0.2,0l0,0.2
			c6.2,2.9,12.1,6.3,17.7,10.2l0.1,0l0,0.1c2.8,1.5,5.5,3.3,8,5.3l0.1-0.1l0,0.1c3.6,2.3,7,4.8,10.2,7.6l0.1-0.1l0,0.1
			c1.3,0.3,1.8,2,3.4,2c0.5-0.8-0.3-1.2-0.7-1.7c-15-16.9-32.6-30.6-52.6-41c-18.4-9.6-37.8-15.9-58.4-18.5c-1.9-0.2-3.9,0-5.7-0.7
			c-4.2,2.5-8,5.6-12.2,8.2c-8,4.9-16.4,8.9-25.1,12.4c-0.2,0.1-0.4,0.1-1.3,0.2c0,0,0.1,0.1,0.1,0.1c-0.1,0-0.1,0.1-0.2,0.1
			c-0.1,0-0.1-0.1-0.1-0.1c0,0,0.1-0.1,0.1-0.1c0,0,0,0-0.1,0c7.2-6.6,11.3-14.4,13.8-23c20.3-7.7,35.9-21.3,48.6-38.4
			c0.3-0.4,0.6-0.7,0.5-1.2c-0.1-0.1-0.2-0.2-0.3-0.3c-3.8,1.1-7.6,2.2-11.9,3.5c13.5-15.3,22.6-32.5,27.8-51.8
			c-0.1,6.5-0.5,13-1.3,19.5c-0.8,6.3-2.2,12.6-3.8,18.7c-0.1,0.5-0.2,1-0.3,1.5c8.9,4,17.1,9.1,25,14.7
			c10.3,7.2,19.5,15.6,27.9,24.8c17.6,19.4,30.2,41.7,37.8,66.8c4.4,14.6,6.7,29.6,7.1,44.9c0.4,16.2-1.3,32-5.2,47.7
			c-0.1,0.4-0.2,0.7-0.4,1.1c-0.2,0.8-0.3,1.7-0.5,2.5c-0.1,0-0.2,0-0.3,0c0.1-0.9,0.1-1.7,0.2-2.6c-0.6-6.9-1.3-13.9-2.7-20.7
			c-4.3-19.7-12.6-37.5-25.2-53.3C383,212.3,375,204.4,365.8,197.8z"/>
		<path class="st7" d="M253.1,166.7C253.1,166.7,253.2,166.7,253.1,166.7C253.2,166.7,253.2,166.7,253.1,166.7
			C253.2,166.7,253.1,166.7,253.1,166.7z"/>
	</g>
</g>
</svg>
